#!OML:ASF F:\VICON\USERDATA\INSTALL\rory3\rory3.ASF
:FULLY-SPECIFIED
:DEGREES
1666
root -2.50067 14.8391 18.2687 375.321 32.4736 53.835
lowerback -22.7764 -10.9294 3.57011
upperback -16.8162 -14.126 3.40852
thorax -6.27747 -7.25075 -0.545632
lowerneck 2.32363 -24.0301 -17.7335
upperneck -8.31588 -32.5838 32.7973
head 5.88638 -16.0374 9.05756
rclavicle -7.31528e-014 4.13472e-014
rhumerus -14.5696 -40.3868 23.8027
rradius 36.1958
rwrist -10.1494
rhand -18.1381 -53.088
rfingers 7.12502
rthumb -171.863 457.089
lclavicle -7.31528e-014 4.13472e-014
lhumerus -5.71 16.7801 10.2922
lradius 23.8165
lwrist 36.8735
lhand -31.5797 -12.6875
lfingers 7.12502
lthumb -4.84293 17.2372
rfemur -37.7845 -2.14272 32.0145
rtibia 55.5279
rfoot -3.07236 -23.042
rtoes 30.9279
lfemur 4.74123 30.2413 -12.2095
ltibia 86.7322
lfoot 9.89034 -2.83482
ltoes 6.1331
1667
root -2.48657 14.8355 18.2209 376.487 32.7755 54.4985
lowerback -22.921 -10.9257 3.49657
upperback -17.0708 -14.0891 3.33936
thorax -6.51264 -7.23699 -0.559819
lowerneck 3.5581 -23.7568 -18.1274
upperneck -9.02495 -32.2029 33.3754
head 5.59415 -16.0184 9.53624
rclavicle 6.20208e-014 -1.145e-013
rhumerus -14.384 -39.6893 23.6825
rradius 36.2768
rwrist -10.5685
rhand -18.3427 -53.4175
rfingers 7.12502
rthumb -172.06 456.752
lclavicle 6.20208e-014 -1.145e-013
lhumerus -5.66287 16.8881 10.1848
lradius 23.5339
lwrist 35.8751
lhand -30.9336 -13.9594
lfingers 7.12502
lthumb -4.21902 15.9786
rfemur -38.0179 -1.91551 31.8622
rtibia 55.5069
rfoot -0.0211798 -22.0237
rtoes 25.2905
lfemur 4.51174 30.2646 -12.5421
ltibia 86.7483
lfoot 9.97855 -2.28269
ltoes 5.85156
1668
root -2.46835 14.8282 18.187 377.213 33.7577 55.1037
lowerback -22.9402 -11.1626 3.35465
upperback -17.0369 -14.3633 3.23181
thorax -6.47231 -7.36706 -0.650116
lowerneck 3.53708 -23.78 -18.0752
upperneck -8.66889 -32.3078 33.1981
head 5.67786 -16.0405 9.44327
rclavicle -4.6118e-014 3.81667e-014
rhumerus -14.3749 -39.0858 23.7353
rradius 36.3027
rwrist -11.2861
rhand -17.8115 -53.5044
rfingers 7.12502
rthumb -171.548 456.685
lclavicle -4.6118e-014 3.81667e-014
lhumerus -5.75765 15.5474 9.9875
lradius 23.7631
lwrist 36.806
lhand -31.605 -15.2965
lfingers 7.12502
lthumb -4.86738 14.6276
rfemur -37.6439 -2.30795 32.0221
rtibia 55.3849
rfoot -1.87373 -22.7704
rtoes 30.348
lfemur 4.78876 29.6754 -12.2056
ltibia 86.7985
lfoot 9.96003 -2.10252
ltoes 6.59187
1669
root -2.43642 14.8035 18.1381 377.927 34.3049 55.5256
lowerback -22.8744 -11.1452 3.42195
upperback -16.9461 -14.3507 3.1729
thorax -6.42943 -7.36468 -0.742536
lowerneck 2.90932 -23.9602 -17.8465
upperneck -8.13548 -32.5802 32.7844
head 5.86412 -16.0765 9.13809
rclavicle -1.11319e-014 7.31528e-014
rhumerus -14.5505 -38.7958 23.9635
rradius 36.334
rwrist -11.727
rhand -17.2424 -53.4871
rfingers 7.12502
rthumb -170.999 456.725
lclavicle -1.11319e-014 7.31528e-014
lhumerus -5.87575 13.6354 9.89277
lradius 24.3778
lwrist 38.8766
lhand -32.0908 -15.8272
lfingers 7.12502
lthumb -5.33645 14.0856
rfemur -37.2655 -2.37147 32.2597
rtibia 55.2142
rfoot -2.86915 -23.0464
rtoes 32.8777
lfemur 4.98118 29.6566 -11.8324
ltibia 87.0106
lfoot 9.76263 -2.44907
ltoes 3.95729
1670
root -2.40003 14.7689 18.0809 378.725 34.6118 55.7469
lowerback -22.8909 -10.9985 3.70181
upperback -16.8942 -14.2029 3.18543
thorax -6.42143 -7.30798 -0.852955
lowerneck 2.64314 -24.011 -17.8206
upperneck -8.13912 -32.6121 32.8435
head 5.92198 -16.0696 9.10563
rclavicle 1.74931e-014 -4.77083e-014
rhumerus -14.7122 -39.3267 24.1614
rradius 36.2854
rwrist -11.3166
rhand -17.3208 -53.163
rfingers 7.12502
rthumb -171.074 457.046
lclavicle 1.74931e-014 -4.77083e-014
lhumerus -5.80319 12.9468 9.91379
lradius 24.7432
lwrist 39.9636
lhand -32.6266 -15.512
lfingers 7.12502
lthumb -5.85374 14.3871
rfemur -37.0201 -2.13645 32.6206
rtibia 55.0072
rfoot -2.92117 -22.9798
rtoes 32.1325
lfemur 4.91317 29.7869 -11.5432
ltibia 87.2925
lfoot 9.65012 -2.36317
ltoes 6.03383
1671
root -2.38781 14.7662 18.0493 379.224 35.5536 56.1209
lowerback -22.6788 -11.1419 3.82517
upperback -16.7755 -14.4007 3.16842
thorax -6.43069 -7.41178 -0.935382
lowerneck 2.66738 -24.0043 -17.8839
upperneck -8.38643 -32.548 33.1016
head 5.90064 -16.0603 9.20555
rclavicle 3.33958e-014 -7.63333e-014
rhumerus -14.6485 -40.229 24.1821
rradius 36.1918
rwrist -10.5937
rhand -18.5277 -52.9389
rfingers 7.12502
rthumb -172.239 457.224
lclavicle 3.33958e-014 -7.63333e-014
lhumerus -5.45273 14.3733 10.0788
lradius 24.3898
lwrist 38.6673
lhand -32.8598 -14.9675
lfingers 7.12502
lthumb -6.07884 14.9253
rfemur -36.5339 -2.45052 32.9982
rtibia 54.8128
rfoot -2.24038 -22.9002
rtoes 27.5226
lfemur 5.30642 29.2986 -10.7817
ltibia 87.3363
lfoot 9.71535 -2.44958
ltoes 5.49535
1672
root -2.38898 14.7949 18.0189 379.969 36.1035 56.5159
lowerback -22.5074 -11.1081 4.07944
upperback -16.7674 -14.3854 3.17887
thorax -6.56731 -7.42131 -1.0108
lowerneck 2.95127 -23.9911 -17.7643
upperneck -9.03898 -32.3603 33.3237
head 5.6496 -16.0524 9.36183
rclavicle -7.31528e-014 -7.31528e-014
rhumerus -14.6467 -39.9685 24.249
rradius 36.3239
rwrist -10.9611
rhand -19.6791 -53.4123
rfingers 7.12502
rthumb -173.35 456.712
lclavicle -7.31528e-014 -7.31528e-014
lhumerus -5.06028 16.3461 10.2872
lradius 23.7667
lwrist 36.4876
lhand -31.9258 -14.7879
lfingers 7.12502
lthumb -5.17707 15.1289
rfemur -36.6507 -2.49972 33.1183
rtibia 54.7229
rfoot -1.52189 -22.8199
rtoes 23.3736
lfemur 5.55097 29.3163 -10.3543
ltibia 87.1829
lfoot 9.72333 -2.80251
ltoes 3.89829
1673
root -2.38992 14.8374 17.9842 381.166 36.3575 57.0442
lowerback -22.6546 -10.9565 4.36909
upperback -16.8118 -14.2272 3.18027
thorax -6.61733 -7.36509 -1.14522
lowerneck 3.09538 -23.9988 -17.5834
upperneck -9.58283 -32.2022 33.4278
head 5.42308 -16.0404 9.4525
rclavicle 3.18055e-015 7.63333e-014
rhumerus -14.8339 -38.8128 24.448
rradius 36.5924
rwrist -12.2515
rhand -19.4384 -53.852
rfingers 7.12502
rthumb -173.118 456.28
lclavicle 3.18055e-015 7.63333e-014
lhumerus -4.76198 17.6573 10.4087
lradius 23.275
lwrist 34.992
lhand -30.9332 -15.088
lfingers 7.12502
lthumb -4.21861 14.8499
rfemur -37.409 -2.29474 32.9301
rtibia 54.7073
rfoot 9.62432 -16.3269
rtoes -6.74227
lfemur 5.39054 29.5478 -10.5868
ltibia 86.8712
lfoot 9.83766 -2.67415
ltoes 3.91594
1674
root -2.37504 14.8348 17.9462 382.166 36.8663 57.7673
lowerback -22.7387 -11.0482 4.24862
upperback -16.7929 -14.3228 3.13809
thorax -6.54144 -7.40327 -1.163
lowerneck 3.16698 -23.9645 -17.6704
upperneck -9.46839 -32.1882 33.3976
head 5.45088 -16.0332 9.46155
rclavicle -2.8625e-014 6.36111e-014
rhumerus -14.8321 -38.4222 24.466
rradius 36.7471
rwrist -12.8261
rhand -19.2615 -53.6735
rfingers 7.12502
rthumb -172.947 456.464
lclavicle -2.8625e-014 6.36111e-014
lhumerus -4.71384 17.677 10.3227
lradius 23.1732
lwrist 34.9987
lhand -31.085 -15.3175
lfingers 7.12502
lthumb -4.36519 14.6175
rfemur -37.4395 -2.39201 32.9597
rtibia 54.7827
rfoot 9.27387 -16.0691
rtoes -6.68255
lfemur 5.42026 29.3454 -10.6172
ltibia 86.7899
lfoot 9.99339 -2.22311
ltoes 7.07303
1675
root -2.36659 14.8393 17.9101 383.178 37.219 58.477
lowerback -22.4914 -11.0922 4.21011
upperback -17.0158 -14.3466 3.11371
thorax -6.9263 -7.41936 -1.08773
lowerneck 3.377 -23.9082 -17.6872
upperneck -9.23596 -32.1694 33.129
head 5.42389 -16.0272 9.41957
rclavicle -1.59028e-015 -2.22639e-014
rhumerus -14.4531 -38.728 24.2677
rradius 36.7523
rwrist -12.5438
rhand -19.2604 -53.371
rfingers 7.12502
rthumb -172.946 456.766
lclavicle -1.59028e-015 -2.22639e-014
lhumerus -5.0522 16.3361 10.0602
lradius 23.5536
lwrist 36.2992
lhand -31.9302 -15.0163
lfingers 7.12502
lthumb -5.18132 14.9003
rfemur -37.5507 -2.24238 32.8576
rtibia 54.8842
rfoot 8.48959 -16.2464
rtoes -4.24429
lfemur 5.42462 29.3602 -10.6494
ltibia 86.7704
lfoot 10.08 -1.92639
ltoes 7.30571
1676
root -2.35139 14.8349 17.8626 384.327 37.429 59.3182
lowerback -22.4648 -11.0896 4.03456
upperback -17.0296 -14.3127 3.05607
thorax -6.92298 -7.39013 -1.05221
lowerneck 3.23496 -23.9779 -17.462
upperneck -9.22751 -32.2105 33.0123
head 5.39356 -16.0394 9.33924
rclavicle 4.92986e-014 -5.08889e-014
rhumerus -14.3643 -39.2789 24.2544
rradius 36.7196
rwrist -12.1974
rhand -18.059 -53.2639
rfingers 7.12502
rthumb -171.787 456.916
lclavicle 4.92986e-014 -5.08889e-014
lhumerus -5.16358 15.7708 9.85414
lradius 23.834
lwrist 36.8985
lhand -31.8661 -14.8015
lfingers 7.12502
lthumb -5.11948 15.1167
rfemur -37.7528 -2.06807 32.6348
rtibia 55.0087
rfoot 8.16798 -16.2844
rtoes -1.91835
lfemur 5.45191 29.6262 -10.7057
ltibia 86.8405
lfoot 10.0116 -2.02304
ltoes 6.90428
1677
root -2.33167 14.825 17.8166 385.39 37.7963 60.0726
lowerback -22.4942 -11.0943 3.94572
upperback -16.9291 -14.3081 3.01555
thorax -6.77586 -7.37752 -1.07372
lowerneck 2.76284 -24.0613 -17.4331
upperneck -8.97327 -32.3391 33.0529
head 5.5774 -16.04 9.23968
rclavicle 7.95139e-015 6.67916e-014
rhumerus -14.5793 -39.5694 24.4604
rradius 36.8167
rwrist -12.0883
rhand -17.6462 -53.4093
rfingers 7.12502
rthumb -171.388 456.786
lclavicle 7.95139e-015 6.67916e-014
lhumerus -5.08084 15.8726 9.76444
lradius 23.9216
lwrist 36.7712
lhand -31.0523 -15.0275
lfingers 7.12502
lthumb -4.33362 14.9081
rfemur -37.8965 -2.05697 32.6062
rtibia 55.1351
rfoot 8.12317 -16.3677
rtoes 0.78579
lfemur 5.4977 29.7339 -10.5945
ltibia 86.9426
lfoot 9.97256 -2.07155
ltoes 7.26042
1678
root -2.31076 14.8271 17.7761 386.108 38.4957 60.4442
lowerback -22.3547 -11.0584 4.33471
upperback -16.8809 -14.3099 3.03987
thorax -6.88334 -7.40441 -1.21347
lowerneck 2.53374 -24.0936 -17.6241
upperneck -8.86261 -32.4073 33.1753
head 5.72299 -16.0401 9.23246
rclavicle 7.95139e-014 8.5875e-014
rhumerus -14.64 -39.8281 24.6461
rradius 36.8875
rwrist -11.8101
rhand -18.8911 -53.7135
rfingers 7.12502
rthumb -172.59 456.436
lclavicle 7.95139e-014 8.5875e-014
lhumerus -5.05172 15.7766 9.81516
lradius 24.0045
lwrist 36.6611
lhand -30.5418 -15.2053
lfingers 7.12502
lthumb -3.84069 14.7398
rfemur -37.796 -2.29005 33.0036
rtibia 55.184
rfoot 7.71125 -16.7214
rtoes 2.83071
lfemur 5.67814 29.6811 -9.92236
ltibia 87.0596
lfoot 9.91123 -2.37889
ltoes 5.92279
1679
root -2.29525 14.8259 17.7352 387.019 38.8011 61.1002
lowerback -22.1629 -11.0218 4.3148
upperback -16.9123 -14.246 3.05346
thorax -6.99939 -7.36683 -1.141
lowerneck 2.68559 -24.0454 -17.9159
upperneck -8.96732 -32.3543 33.3767
head 5.75259 -16.0336 9.34592
rclavicle 1.68569e-013 8.5875e-014
rhumerus -14.5218 -39.8598 24.721
rradius 36.8989
rwrist -11.6398
rhand -19.2892 -53.8035
rfingers 7.12502
rthumb -172.974 456.333
lclavicle 1.68569e-013 8.5875e-014
lhumerus -4.99805 15.8259 9.91667
lradius 23.963
lwrist 36.6883
lhand -30.2575 -15.516
lfingers 7.12502
lthumb -3.56612 14.4339
rfemur -37.7279 -2.23553 33.0198
rtibia 55.1563
rfoot 7.129 -17.3127
rtoes 4.08918
lfemur 5.8201 29.9841 -9.60828
ltibia 87.1744
lfoot 9.85338 -2.93544
ltoes 2.86605
1680
root -2.27997 14.8216 17.7034 388.161 39.0783 61.9509
lowerback -22.2209 -11.0913 4.05115
upperback -16.9426 -14.2849 3.09971
thorax -6.92538 -7.35753 -0.981823
lowerneck 2.81071 -23.9926 -18.1577
upperneck -8.92617 -32.3178 33.4364
head 5.79239 -16.0235 9.40651
rclavicle -6.99722e-014 5.08889e-014
rhumerus -14.4623 -39.3549 24.795
rradius 37.0734
rwrist -12.0415
rhand -18.8556 -53.7317
rfingers 7.12502
rthumb -172.555 456.419
lclavicle -6.99722e-014 5.08889e-014
lhumerus -4.87609 16.4165 10.0091
lradius 23.7439
lwrist 36.583
lhand -30.0863 -15.8549
lfingers 7.12502
lthumb -3.40082 14.0977
rfemur -37.7778 -2.16893 32.9101
rtibia 55.1364
rfoot 6.54825 -18.0661
rtoes 6.24528
lfemur 5.76898 30.101 -9.69156
ltibia 87.2244
lfoot 9.95129 -3.12717
ltoes 2.05252
